PathFileType	4	(X/Y/Z)	/Users/visionmauri/1_9_1_f_Sports2D/1_9_1_f_Sports2D_px_person00.trc
DataRate	CameraRate	NumFrames	NumMarkers	Units	OrigDataRate	OrigDataStartFrame	OrigNumFrames
30.0	30.0	7	22	m	30.0	261	349
Frame#	Time	Hip			RHip			RKnee			RAnkle			RBigToe			RSmallToe			RHeel			LHip			LKnee			LAnkle			LBigToe			LSmallToe			LHeel			Neck			Head			Nose			RShoulder			RElbow			RWrist			LShoulder			LElbow			LWrist			
		X1	Y1	Z1	X2	Y2	Z2	X3	Y3	Z3	X4	Y4	Z4	X5	Y5	Z5	X6	Y6	Z6	X7	Y7	Z7	X8	Y8	Z8	X9	Y9	Z9	X10	Y10	Z10	X11	Y11	Z11	X12	Y12	Z12	X13	Y13	Z13	X14	Y14	Z14	X15	Y15	Z15	X16	Y16	Z16	X17	Y17	Z17	X18	Y18	Z18	X19	Y19	Z19	X20	Y20	Z20	X21	Y21	Z21	X22	Y22	Z22
261	8.725	535.9118283102601	797.850281567372	0.0	485.8649630825507	807.0484998961012	0.0	497.4916445763701	1022.5794247422526	0.0	517.1040822116037	1229.180405780744	0.0	521.9268591728825	1299.511210754975	0.0	491.1002347059698	1296.1359820173739	0.0	525.1377850141017	1259.8379339901924	0.0	588.7959649321328	798.0023319196334	0.0	598.678472069158	983.3615948709571	0.0	610.6187459419637	1233.563181655465	0.0	627.7552343886899	1293.636649179546	0.0	654.5787604026572	1294.1515432301933	0.0	604.9310351002802	1279.0653851854552	0.0	544.3232105493872	516.0168952134921	0.0	568.2054616929283	376.85498122100336	0.0	562.5327340074414	489.28732275820374	0.0	440.3806026523106	535.2461407268349	0.0	377.539550801857	660.1457610561572	0.0	366.50194386676736	777.8813672164788	0.0	642.0580004351375	533.4721632744956	0.0	680.6018382763675	660.7038992632988	0.0	694.563912372636	679.468358346379	0.0
262	8.758429118773947	536.8504652363862	798.9741686805484	0.0	486.3631366144987	809.025196801689	0.0	497.4475887248425	1022.6049857709197	0.0	516.7676546659455	1228.8781189224346	0.0	522.4025621232522	1299.9632985479643	0.0	491.41726391260437	1296.186442375549	0.0	525.1980738561405	1258.7014959574576	0.0	589.6020940431258	800.727503357725	0.0	598.1200882088006	986.1278221580895	0.0	607.9034205523044	1236.3325714898249	0.0	624.2267150527709	1297.8712166872258	0.0	650.3476859920016	1298.544286787372	0.0	601.0288241649205	1279.498290500739	0.0	545.2489582160678	515.8663031035451	0.0	569.48935978503	377.15297452785137	0.0	565.1427925778007	489.8799217700433	0.0	440.55885726219606	536.098296291437	0.0	377.7885107795233	663.2296469845635	0.0	366.73342436434365	778.4426223893171	0.0	643.9880579944404	533.4137960341427	0.0	682.2882313726438	659.4246613508503	0.0	694.9617345166527	677.4917693829332	0.0
263	8.791858237547892	538.4849391827164	801.0376398128595	0.0	487.16512655210676	812.0743327774042	0.0	497.5454525977407	1023.7889016565686	0.0	517.0807259576599	1228.2956870952075	0.0	522.4528112884335	1301.0227078745897	0.0	491.4354016925198	1296.244494230731	0.0	525.7368059795278	1256.4352718550203	0.0	591.515871961025	803.8373742727509	0.0	597.4710639577672	990.9559499758537	0.0	603.5722618240178	1238.7264783555731	0.0	617.0215034136581	1305.6725706609775	0.0	643.9524026078036	1304.6106482586442	0.0	594.31965529632	1280.8664210526665	0.0	546.0226834697368	515.6858351695458	0.0	571.3039395596729	376.69398997049115	0.0	567.2386339685263	489.6867101053553	0.0	440.9910447144756	536.9755156241307	0.0	378.866265885141	665.4804264660542	0.0	368.0511659411894	778.5048819075356	0.0	645.3397680395358	533.0775499873746	0.0	682.1864846734014	659.8314990646543	0.0	695.6191243398454	676.0307767282411	0.0
264	8.825287356321839	539.9684806511268	803.1681866368027	0.0	487.9643742786107	814.5583790330639	0.0	497.66308437497946	1025.5295908162946	0.0	517.5579658074635	1227.4749431895434	0.0	521.7339016017546	1301.7676953951507	0.0	491.2374364498439	1296.1331177742657	0.0	526.0250111128239	1254.6375983704947	0.0	593.0837549318912	806.0178092506981	0.0	596.5370687688379	996.5997949480629	0.0	599.9952764755762	1241.9770199674701	0.0	610.1784237295909	1313.8946341289093	0.0	638.9202623133505	1310.9034616086492	0.0	588.7141652630526	1283.1984803747903	0.0	547.973542528569	514.869049419639	0.0	573.3931579885603	375.03195177423686	0.0	568.9463483066495	488.1365201328541	0.0	442.5204838474419	537.3833710518999	0.0	381.1453288001369	666.5246799065468	0.0	369.8017829956781	778.2480206009228	0.0	647.4993580433212	533.284360311644	0.0	683.0925766754838	662.2763376134491	0.0	699.3043978116746	688.1474696134476	0.0
265	8.858716475095784	541.0380574349898	804.3921250607335	0.0	488.60231681472584	815.2648587898855	0.0	497.8039053155701	1026.3812944912318	0.0	517.3521447885296	1226.8938232456978	0.0	521.1204278097691	1301.9048138536657	0.0	491.54114772544085	1296.0069574328552	0.0	525.4782799890189	1254.4961959325544	0.0	594.1175439183784	807.2671947214674	0.0	596.0335591489029	1000.445722439424	0.0	598.8370060766717	1245.5362427931302	0.0	608.7142907117461	1318.782045115697	0.0	638.3002798879555	1315.495221244077	0.0	586.3540343681824	1285.1771099513019	0.0	551.3901412137567	512.7170821200084	0.0	575.1209103140195	372.533970699233	0.0	571.2670242031902	483.9756297702143	0.0	445.3615287227726	536.9739033743147	0.0	384.6529980701425	666.7265650868876	0.0	371.73082781468	778.5464554097534	0.0	651.5045948395815	534.6878770471803	0.0	686.9317799269215	664.7204624901706	0.0	704.9674090373045	718.9218952866695	0.0
266	8.892145593869731	542.1554852880514	804.764959856845	0.0	489.10360493102553	814.7788168530943	0.0	498.1258830551633	1026.6093707663715	0.0	516.5785361552865	1226.8290259558503	0.0	521.1285831830036	1301.9699237399411	0.0	492.2118559150974	1296.1213683762655	0.0	524.7646977076198	1255.2996660211343	0.0	595.2844906838093	808.0044014597503	0.0	597.1661661556506	1001.8502768317	0.0	599.7367558447298	1248.0634839892411	0.0	611.9777593716649	1321.4064384960686	0.0	641.1990125879944	1318.3880486329458	0.0	585.4810304373166	1286.34278411401	0.0	554.845376519535	510.79733427902426	0.0	577.0716474368045	370.52579910257214	0.0	573.937140348234	478.7656006077002	0.0	448.5166081079171	535.6551669956314	0.0	388.8185413199038	666.6866501317128	0.0	374.1015887862497	779.6390041907799	0.0	655.7902434001832	536.1745297625195	0.0	690.916872775906	664.5783013310494	0.0	709.34329296546	752.5411923153997	0.0
267	8.925574712643678	543.5942962137799	804.9589590343228	0.0	489.84869479385446	814.2617878627831	0.0	498.78253612632295	1027.58554657068	0.0	515.6856245686143	1226.964752153676	0.0	521.4169496285524	1302.2596365671122	0.0	492.6072904312055	1296.4289595974865	0.0	524.5772410176542	1255.8257962944197	0.0	596.9421529654248	808.2315503533616	0.0	599.8908937692314	1001.5493377071482	0.0	601.8488531662349	1250.188787817047	0.0	614.9097786506246	1324.5938550998735	0.0	644.280237039103	1321.0793842066535	0.0	585.1923352907155	1287.601719831307	0.0	557.5103610611644	510.36767902633187	0.0	580.2897724284587	369.62234420772575	0.0	576.1211647792203	475.27885322415017	0.0	450.8049751995505	533.9770921232297	0.0	393.1101799655742	666.9285280954706	0.0	376.79007691524623	780.5766418368493	0.0	658.7270199773161	536.698980335478	0.0	692.4378845902264	663.3458544837379	0.0	711.4209004836275	772.6358591318211	0.0
